<svg width="64" height="64" viewBox="0 0 64 64" fill="none" xmlns="http://www.w3.org/2000/svg">
<rect width="64" height="64" rx="32" fill="#6BFE9C"/>
<path d="M29.3167 42.6663C26.3389 42.6663 23.8111 41.633 21.7334 39.5663C19.6556 37.4997 18.6167 34.9775 18.6167 31.9997C18.6167 29.0219 19.6556 26.4997 21.7334 24.433C23.8111 22.3663 26.3389 21.333 29.3167 21.333H34.6834C37.6611 21.333 40.1889 22.3663 42.2667 24.433C44.3445 26.4997 45.3834 29.0219 45.3834 31.9997C45.3834 34.9775 44.3445 37.4997 42.2667 39.5663C40.1889 41.633 37.6611 42.6663 34.6834 42.6663H29.3167ZM29.35 39.9997H34.65C36.8723 39.9997 38.7723 39.2219 40.35 37.6663C41.9278 36.1108 42.7167 34.2219 42.7167 31.9997C42.7167 29.7775 41.9278 27.8886 40.35 26.333C38.7723 24.7775 36.8723 23.9997 34.65 23.9997H29.35C27.1278 23.9997 25.2278 24.7775 23.65 26.333C22.0723 27.8886 21.2834 29.7775 21.2834 31.9997C21.2834 34.2219 22.0723 36.1108 23.65 37.6663C25.2278 39.2219 27.1278 39.9997 29.35 39.9997ZM30.1167 34.233L27.2834 31.3997C27.0389 31.133 26.7334 30.9997 26.3667 30.9997C26 30.9997 25.6834 31.133 25.4167 31.3997C25.15 31.6663 25.0167 31.983 25.0167 32.3497C25.0167 32.7163 25.15 33.0219 25.4167 33.2663L28.7167 36.5663C29.1167 36.9663 29.5945 37.1663 30.15 37.1663C30.7056 37.1663 31.1723 36.9663 31.55 36.5663L38.6167 29.4997C38.8834 29.2552 39.0167 28.9441 39.0167 28.5663C39.0167 28.1886 38.8834 27.8775 38.6167 27.633C38.35 27.3663 38.0334 27.233 37.6667 27.233C37.3 27.233 36.9834 27.3663 36.7167 27.633L30.1167 34.233Z" fill="#00743A"/>
</svg>
