<svg width="96" height="96" viewBox="0 0 96 96" fill="none" xmlns="http://www.w3.org/2000/svg">
<rect width="96" height="96" rx="48" fill="#6BFE9C"/>
<path d="M45.2 57.2L59.3 43.1L56.5 40.3L45.2 51.6L39.5 45.9L36.7 48.7L45.2 57.2ZM48 68C45.2333 68 42.6333 67.475 40.2 66.425C37.7667 65.375 35.65 63.95 33.85 62.15C32.05 60.35 30.625 58.2333 29.575 55.8C28.525 53.3667 28 50.7667 28 48C28 45.2333 28.525 42.6333 29.575 40.2C30.625 37.7667 32.05 35.65 33.85 33.85C35.65 32.05 37.7667 30.625 40.2 29.575C42.6333 28.525 45.2333 28 48 28C50.7667 28 53.3667 28.525 55.8 29.575C58.2333 30.625 60.35 32.05 62.15 33.85C63.95 35.65 65.375 37.7667 66.425 40.2C67.475 42.6333 68 45.2333 68 48C68 50.7667 67.475 53.3667 66.425 55.8C65.375 58.2333 63.95 60.35 62.15 62.15C60.35 63.95 58.2333 65.375 55.8 66.425C53.3667 67.475 50.7667 68 48 68Z" fill="#00743A"/>
</svg>
