<svg width="48" height="48" viewBox="0 0 48 48" fill="none" xmlns="http://www.w3.org/2000/svg">
<rect width="48" height="48" rx="8" fill="#43474D" fill-opacity="0.1"/>
<path d="M17 34C16.45 34 15.9792 33.8042 15.5875 33.4125C15.1958 33.0208 15 32.55 15 32V20.725C14.7 20.5417 14.4583 20.3042 14.275 20.0125C14.0917 19.7208 14 19.3833 14 19V16C14 15.45 14.1958 14.9792 14.5875 14.5875C14.9792 14.1958 15.45 14 16 14H32C32.55 14 33.0208 14.1958 33.4125 14.5875C33.8042 14.9792 34 15.45 34 16V19C34 19.3833 33.9083 19.7208 33.725 20.0125C33.5417 20.3042 33.3 20.5417 33 20.725V32C33 32.55 32.8042 33.0208 32.4125 33.4125C32.0208 33.8042 31.55 34 31 34H17ZM17 21V32H31V21H17ZM16 19H32V16H16V19ZM21 26H27V24H21V26Z" fill="#43474D"/>
</svg>
